<svg xmlns="http://www.w3.org/2000/svg" width="800" height="560" viewBox="0 0 800 560" role="img" aria-label="Mockup de la tienda online de Ferretería Del Sur">
  <title>Tienda online — Ferretería Del Sur</title>
  <defs>
    <clipPath id="fds-frame"><rect width="800" height="560" rx="16"/></clipPath>
    <linearGradient id="fds-banner" x1="0" y1="0" x2="1" y2="1">
      <stop offset="0" stop-color="#1E3A8A"/>
      <stop offset="1" stop-color="#2563EB"/>
    </linearGradient>
  </defs>

  <g clip-path="url(#fds-frame)">
    <rect width="800" height="560" fill="#FFFFFF"/>

    <!-- Barra del navegador -->
    <rect width="800" height="44" fill="#F3F4F6"/>
    <circle cx="26" cy="22" r="5" fill="#E5E7EB"/>
    <circle cx="44" cy="22" r="5" fill="#E5E7EB"/>
    <circle cx="62" cy="22" r="5" fill="#E5E7EB"/>
    <rect x="88" y="11" width="260" height="22" rx="11" fill="#FFFFFF"/>
    <rect x="102" y="19" width="132" height="6" rx="3" fill="#E5E7EB"/>
    <line x1="0" y1="44" x2="800" y2="44" stroke="#E5E7EB" stroke-width="1"/>

    <!-- Header del sitio -->
    <rect x="0" y="45" width="800" height="56" fill="#FFFFFF"/>
    <rect x="32" y="62" width="22" height="22" rx="5" fill="#1E3A8A"/>
    <rect x="62" y="68" width="84" height="10" rx="5" fill="#111827"/>
    <rect x="196" y="70" width="52" height="7" rx="3.5" fill="#6B7280"/>
    <rect x="262" y="70" width="42" height="7" rx="3.5" fill="#6B7280"/>
    <rect x="318" y="70" width="60" height="7" rx="3.5" fill="#6B7280"/>
    <rect x="470" y="59" width="200" height="28" rx="14" fill="#F9FAFB" stroke="#E5E7EB"/>
    <circle cx="489" cy="73" r="5" fill="none" stroke="#9CA3AF" stroke-width="1.6"/>
    <line x1="493" y1="77" x2="497" y2="81" stroke="#9CA3AF" stroke-width="1.6"/>
    <rect x="506" y="70" width="88" height="6" rx="3" fill="#E5E7EB"/>
    <rect x="694" y="59" width="74" height="28" rx="8" fill="#06B6D4"/>
    <path d="M708 68h4l3 12h14l3-9" fill="none" stroke="#FFFFFF" stroke-width="1.8" stroke-linecap="round" stroke-linejoin="round"/>
    <circle cx="717" cy="84" r="1.8" fill="#FFFFFF"/>
    <circle cx="727" cy="84" r="1.8" fill="#FFFFFF"/>
    <rect x="740" y="70" width="18" height="6" rx="3" fill="#FFFFFF" opacity="0.85"/>
    <line x1="0" y1="101" x2="800" y2="101" stroke="#E5E7EB" stroke-width="1"/>

    <!-- Banner de campaña -->
    <rect x="32" y="121" width="736" height="104" rx="12" fill="url(#fds-banner)"/>
    <rect x="56" y="146" width="230" height="14" rx="7" fill="#FFFFFF"/>
    <rect x="56" y="170" width="170" height="9" rx="4.5" fill="#FFFFFF" opacity="0.55"/>
    <rect x="56" y="190" width="118" height="24" rx="6" fill="#06B6D4"/>
    <rect x="70" y="199" width="90" height="6" rx="3" fill="#FFFFFF"/>
    <!-- Motivo de nodos dentro del banner -->
    <g opacity="0.5">
      <line x1="580" y1="150" x2="650" y2="188" stroke="#FFFFFF" stroke-width="1"/>
      <line x1="650" y1="188" x2="726" y2="152" stroke="#FFFFFF" stroke-width="1"/>
      <line x1="650" y1="188" x2="612" y2="206" stroke="#FFFFFF" stroke-width="1"/>
      <circle cx="580" cy="150" r="3.5" fill="#06B6D4"/>
      <circle cx="650" cy="188" r="4.5" fill="#FFFFFF"/>
      <circle cx="726" cy="152" r="3.5" fill="#06B6D4"/>
      <circle cx="612" cy="206" r="3.5" fill="#06B6D4"/>
    </g>

    <!-- Filtros -->
    <rect x="32" y="247" width="92" height="24" rx="12" fill="#1E3A8A"/>
    <rect x="48" y="256" width="60" height="6" rx="3" fill="#FFFFFF"/>
    <rect x="134" y="247" width="82" height="24" rx="12" fill="#F9FAFB" stroke="#E5E7EB"/>
    <rect x="150" y="256" width="50" height="6" rx="3" fill="#9CA3AF"/>
    <rect x="226" y="247" width="104" height="24" rx="12" fill="#F9FAFB" stroke="#E5E7EB"/>
    <rect x="242" y="256" width="72" height="6" rx="3" fill="#9CA3AF"/>
    <rect x="640" y="247" width="128" height="24" rx="12" fill="#F9FAFB" stroke="#E5E7EB"/>
    <rect x="656" y="256" width="82" height="6" rx="3" fill="#9CA3AF"/>

    <!-- Grilla de productos (2 filas × 3) -->
    <g>
      <!-- fila 1 -->
      <rect x="32" y="291" width="236" height="128" rx="12" fill="#FFFFFF" stroke="#E5E7EB"/>
      <rect x="48" y="307" width="60" height="60" rx="8" fill="#F3F4F6"/>
      <path d="M62 350l14-16 10 11 10-13" fill="none" stroke="#9CA3AF" stroke-width="2" stroke-linecap="round"/>
      <rect x="122" y="312" width="118" height="8" rx="4" fill="#111827"/>
      <rect x="122" y="330" width="86" height="6" rx="3" fill="#E5E7EB"/>
      <rect x="122" y="346" width="52" height="10" rx="5" fill="#1E3A8A"/>
      <rect x="48" y="383" width="74" height="20" rx="6" fill="#ECFEFF"/>
      <rect x="60" y="390" width="50" height="6" rx="3" fill="#06B6D4"/>
      <rect x="166" y="383" width="86" height="20" rx="6" fill="#06B6D4"/>
      <rect x="182" y="390" width="54" height="6" rx="3" fill="#FFFFFF"/>

      <rect x="282" y="291" width="236" height="128" rx="12" fill="#FFFFFF" stroke="#E5E7EB"/>
      <rect x="298" y="307" width="60" height="60" rx="8" fill="#F3F4F6"/>
      <circle cx="328" cy="337" r="15" fill="none" stroke="#9CA3AF" stroke-width="2"/>
      <line x1="328" y1="326" x2="328" y2="348" stroke="#9CA3AF" stroke-width="2"/>
      <rect x="372" y="312" width="100" height="8" rx="4" fill="#111827"/>
      <rect x="372" y="330" width="72" height="6" rx="3" fill="#E5E7EB"/>
      <rect x="372" y="346" width="46" height="10" rx="5" fill="#1E3A8A"/>
      <rect x="298" y="383" width="74" height="20" rx="6" fill="#ECFEFF"/>
      <rect x="310" y="390" width="50" height="6" rx="3" fill="#06B6D4"/>
      <rect x="416" y="383" width="86" height="20" rx="6" fill="#06B6D4"/>
      <rect x="432" y="390" width="54" height="6" rx="3" fill="#FFFFFF"/>

      <rect x="532" y="291" width="236" height="128" rx="12" fill="#FFFFFF" stroke="#E5E7EB"/>
      <rect x="548" y="307" width="60" height="60" rx="8" fill="#F3F4F6"/>
      <rect x="562" y="323" width="32" height="28" rx="4" fill="none" stroke="#9CA3AF" stroke-width="2"/>
      <rect x="622" y="312" width="112" height="8" rx="4" fill="#111827"/>
      <rect x="622" y="330" width="64" height="6" rx="3" fill="#E5E7EB"/>
      <rect x="622" y="346" width="58" height="10" rx="5" fill="#1E3A8A"/>
      <rect x="548" y="383" width="90" height="20" rx="6" fill="#FEF3C7"/>
      <rect x="560" y="390" width="66" height="6" rx="3" fill="#F59E0B"/>
      <rect x="666" y="383" width="86" height="20" rx="6" fill="#06B6D4"/>
      <rect x="682" y="390" width="54" height="6" rx="3" fill="#FFFFFF"/>

      <!-- fila 2 (recortada por el borde inferior) -->
      <rect x="32" y="435" width="236" height="128" rx="12" fill="#FFFFFF" stroke="#E5E7EB"/>
      <rect x="48" y="451" width="60" height="60" rx="8" fill="#F3F4F6"/>
      <rect x="122" y="456" width="106" height="8" rx="4" fill="#111827"/>
      <rect x="122" y="474" width="78" height="6" rx="3" fill="#E5E7EB"/>
      <rect x="122" y="490" width="50" height="10" rx="5" fill="#1E3A8A"/>

      <rect x="282" y="435" width="236" height="128" rx="12" fill="#FFFFFF" stroke="#E5E7EB"/>
      <rect x="298" y="451" width="60" height="60" rx="8" fill="#F3F4F6"/>
      <rect x="372" y="456" width="94" height="8" rx="4" fill="#111827"/>
      <rect x="372" y="474" width="68" height="6" rx="3" fill="#E5E7EB"/>
      <rect x="372" y="490" width="54" height="10" rx="5" fill="#1E3A8A"/>

      <rect x="532" y="435" width="236" height="128" rx="12" fill="#FFFFFF" stroke="#E5E7EB"/>
      <rect x="548" y="451" width="60" height="60" rx="8" fill="#F3F4F6"/>
      <rect x="622" y="456" width="104" height="8" rx="4" fill="#111827"/>
      <rect x="622" y="474" width="60" height="6" rx="3" fill="#E5E7EB"/>
      <rect x="622" y="490" width="48" height="10" rx="5" fill="#1E3A8A"/>
    </g>

    <!-- Widget del chatbot -->
    <g>
      <rect x="596" y="446" width="180" height="86" rx="12" fill="#111827" opacity="0.06"/>
      <rect x="592" y="442" width="180" height="86" rx="12" fill="#FFFFFF" stroke="#E5E7EB"/>
      <circle cx="616" cy="466" r="10" fill="#1E3A8A"/>
      <line x1="616" y1="466" x2="616" y2="459" stroke="#06B6D4" stroke-width="1.6"/>
      <line x1="616" y1="466" x2="622" y2="470" stroke="#06B6D4" stroke-width="1.6"/>
      <line x1="616" y1="466" x2="610" y2="470" stroke="#06B6D4" stroke-width="1.6"/>
      <rect x="634" y="461" width="72" height="6" rx="3" fill="#111827"/>
      <rect x="634" y="473" width="52" height="5" rx="2.5" fill="#9CA3AF"/>
      <rect x="608" y="492" width="104" height="22" rx="8" fill="#F9FAFB" stroke="#E5E7EB"/>
      <rect x="620" y="500" width="72" height="6" rx="3" fill="#E5E7EB"/>
      <rect x="722" y="492" width="34" height="22" rx="8" fill="#06B6D4"/>
      <path d="M732 503h12m-4-4 4 4-4 4" fill="none" stroke="#FFFFFF" stroke-width="1.8" stroke-linecap="round" stroke-linejoin="round"/>
    </g>
  </g>

  <rect x="0.5" y="0.5" width="799" height="559" rx="16" fill="none" stroke="#E5E7EB"/>
</svg>
